# xmcd
#
# Track frame offsets:
#	150
#	18567
#	34019
#	56240
#	70152
#	105518
#	135635
#	162969
#	189012
#
# Disc length: 3004 seconds
#
# Revision: 1
# Processed by: cddbd v1.5.1PL2 Copyright (c) Steve Scherf et al.
# Submitted via: EasyCDDAExtractor 9.0.0.1
#
DISCID=710bba09
DTITLE=Saxon - Kreuz Fulda 09-12-05 Disc 2
DYEAR=2005
DGENRE=Hard Rock
TTITLE0=To Hell And Back Again
TTITLE1=Red Line
TTITLE2=Dallas 1 PM
TTITLE3=See The Light Shining
TTITLE4=Denim and Leather
TTITLE5=747 (Strangers In The Night)
TTITLE6=Princess Of The Night
TTITLE7=Heavy Metal Thunder
TTITLE8=track9
EXTD=
EXTT0=
EXTT1=
EXTT2=
EXTT3=
EXTT4=
EXTT5=
EXTT6=
EXTT7=
EXTT8=
PLAYORDER=
